PathFileType	4	(x/y/z)	S02_M20_T14
DataRate	CameraRate	NumFrames	NumMarkers	Units	OrigDataRate	OrigDataStartFrame	OrigNumFrames
240	240	7	51	mm	240	288	460
Frame#	Time	Sternum			R.Acromium			L.Acromium			Top.Head			R.ASIS			L.ASIS			R.PSIS			L.PSIS			R.Great.Tro			L.Great.Tro			R.Iliac.Crest			L.Iliac.Crest			V.Sacral			R.Thigh.Upper.Post			R.Thigh.Lower.Ant			R.Thigh.Lower.Post			R.Thigh.Upper.Ant			R.Knee.Lat			R.Knee.Med			R.Shank.Upper.Post			R.Shank.Lower.Ant			R.Shank.Lower.Post			R.Shank.Upper.Ant			R.Ankle.Lat			R.Ankle.Med			R.Heel.Upper			R.Heel.Med			R.Heel.Lat			R.Toe.Lat			R.Toe.Med			R.Toe.Tip			L.Thigh.Upper.Post			L.Thigh.Lower.Ant			L.Thigh.Lower.Post			L.Thigh.Upper.Ant			L.Knee.Lat			L.Knee.Med			L.Shank.Upper.Post			L.Shank.Lower.Ant			L.Shank.Lower.Post			L.Shank.Upper.Ant			L.Ankle.Lat			L.Ankle.Med			L.Heel.Upper			L.Heel.Med			L.Heel.Lat			L.Toe.Lat			L.Toe.Med			L.Toe.Tip			Cervical.Spine			Back			
		X1	Y1	Z1	X2	Y2	Z2	X3	Y3	Z3	X4	Y4	Z4	X5	Y5	Z5	X6	Y6	Z6	X7	Y7	Z7	X8	Y8	Z8	X9	Y9	Z9	X10	Y10	Z10	X11	Y11	Z11	X12	Y12	Z12	X13	Y13	Z13	X14	Y14	Z14	X15	Y15	Z15	X16	Y16	Z16	X17	Y17	Z17	X18	Y18	Z18	X19	Y19	Z19	X20	Y20	Z20	X21	Y21	Z21	X22	Y22	Z22	X23	Y23	Z23	X24	Y24	Z24	X25	Y25	Z25	X26	Y26	Z26	X27	Y27	Z27	X28	Y28	Z28	X29	Y29	Z29	X30	Y30	Z30	X31	Y31	Z31	X32	Y32	Z32	X33	Y33	Z33	X34	Y34	Z34	X35	Y35	Z35	X36	Y36	Z36	X37	Y37	Z37	X38	Y38	Z38	X39	Y39	Z39	X40	Y40	Z40	X41	Y41	Z41	X42	Y42	Z42	X43	Y43	Z43	X44	Y44	Z44	X45	Y45	Z45	X46	Y46	Z46	X47	Y47	Z47	X48	Y48	Z48	X49	Y49	Z49	X50	Y50	Z50	X51	Y51	Z51	

288	1.1958	12.561	1055.1	368.7	-89.308	1288.5	509.56	-97.485	1297.5	216.06	-50.178	1578	350.03	-36.912	880.18	489.46	14.157	869.59	272.34	-236.13	918.94	375.33	-222.66	917.27	301.67	-135.35	775.18	555.59	-80.355	781.29	161.67	-150.14	928.55	518.39	-94.441	919.9	180.53	-258.5	873.48	326.63	-195.35	585.99	528.14	-169.45	494.06	489.53	-239.65	510.16	502.79	-129.47	571.14	512.57	-251.89	431.02	483.17	-260.04	425.16	339.5	-407.63	271.93	459.11	-370.71	169.1	435.41	-430.51	202.18	445.17	-345.97	231.71	456.49	-453.08	107.09	425.9	-443.29	121.57	344.84	-519.05	101.8	371	-510.83	68.47	343.13	-520.07	70.287	406.75	-363.15	37.504	448.11	-331.69	32.363	340.61	-281.23	53.786	395.32	-15.687	562.19	186.1	87.099	526.03	201.95	21.811	482.43	211.74	40.143	605.57	176.99	107.58	450.42	212	94.392	442.01	354.25	120.89	262.76	216.11	227.4	228.5	225.02	159.99	200.62	232.3	181.36	287.78	210.47	254.12	116.33	237.51	267.09	124.96	320.31	223.41	55.519	277.91	246.19	43.132	314.57	245.17	31.41	253.76	386.32	114.01	213.74	396.21	148.23	317.6	434.7	192.22	266.13	-168.15	1354.3	369.68	-250.08	1103.8	365.92
289	1.2	18.55	1054.2	368.38	-83.484	1287.7	508.77	-91.527	1296.4	215.28	-44.366	1577.1	349.01	-31.157	879.17	489.41	20.345	868.71	272.28	-230.18	918.01	374.96	-216.71	916.39	301.33	-130.12	774.26	555.32	-74.006	780.73	161.42	-144.43	927.51	518.15	-88.327	918.94	180.34	-252.72	872.67	326.15	-190.49	585.29	527.83	-164.67	493.22	489.56	-234.87	509.54	502.5	-124.57	570.23	512.64	-247.26	430.39	483.02	-255	424.34	339.32	-404.5	272.91	459.09	-368.91	169.63	435.46	-428.21	203.4	445.23	-343.41	232.02	456.42	-451.91	108.48	426.19	-442.13	122.89	345.05	-517.94	103.99	371.35	-510.11	70.684	343.35	-519.31	72.358	406.98	-362.9	37.524	448.18	-331.57	32.365	340.63	-281.09	53.529	395.27	-8.9448	561.54	186.06	93.903	525.64	202.11	28.71	481.9	211.86	46.789	605.04	176.98	114.28	449.84	212.23	101.36	441.77	354.46	126.32	262.02	216.41	232.51	226.97	225.55	164.92	199.6	232.62	186.97	286.6	210.88	258.36	114.86	237.96	271.35	123.24	320.83	227.18	54.575	278.35	249.79	41.878	314.94	248.64	30.34	254.12	390.43	111.59	214.24	400.57	145.52	318.15	439.41	189.25	266.75	-162.32	1353.3	368.8	-244.13	1102.8	365.47
290	1.2042	24.603	1053.4	368.04	-77.639	1287	507.96	-85.53	1295.3	214.48	-38.54	1576.2	347.97	-25.313	878.18	489.33	26.579	867.9	272.18	-224.15	917.12	374.63	-210.71	915.58	301.02	-124.81	773.34	555.04	-67.614	780.22	161.17	-138.61	926.49	517.93	-82.194	918.04	180.15	-246.89	871.92	325.72	-185.53	584.6	527.5	-159.79	492.39	489.56	-230	508.93	502.2	-119.58	569.34	512.67	-242.51	429.76	482.86	-249.86	423.52	339.13	-401.28	273.93	459.06	-367.06	170.22	435.52	-425.84	204.69	445.3	-340.77	232.36	456.36	-450.66	109.94	426.5	-440.88	124.28	345.29	-516.73	106.31	371.72	-509.31	73.026	343.59	-518.49	74.555	407.23	-362.62	37.555	448.27	-331.45	32.372	340.65	-280.95	53.278	395.22	-2.2071	560.92	186.05	100.7	525.27	202.26	35.592	481.39	211.99	53.441	604.52	176.96	120.96	449.27	212.47	108.34	441.54	354.66	131.62	261.3	216.68	237.46	225.36	226.1	169.67	198.56	232.91	192.46	285.39	211.31	262.32	113.33	238.4	275.33	121.41	321.36	230.58	53.683	278.77	252.98	40.616	315.28	251.71	29.304	254.44	394.25	108.94	214.75	404.66	142.53	318.72	443.93	185.94	267.43	-156.47	1352.4	367.88	-238.12	1101.8	365.02
291	1.2083	30.721	1052.6	367.69	-71.774	1286.3	507.13	-79.491	1294.3	213.67	-32.7	1575.4	346.92	-19.379	877.21	489.2	32.858	867.14	272.04	-218.04	916.29	374.34	-204.65	914.82	300.74	-119.42	772.42	554.73	-61.177	779.77	160.92	-132.66	925.5	517.72	-76.036	917.19	179.94	-241.01	871.23	325.32	-180.46	583.91	527.14	-154.79	491.57	489.53	-225.01	508.32	501.9	-114.48	568.46	512.67	-237.65	429.13	482.69	-244.62	422.7	338.95	-397.96	275	459.04	-365.15	170.87	435.61	-423.38	206.04	445.37	-338.05	232.74	456.33	-449.34	111.47	426.83	-439.51	125.73	345.54	-515.41	108.75	372.12	-508.42	75.5	343.85	-517.58	76.879	407.49	-362.33	37.598	448.38	-331.35	32.384	340.68	-280.83	53.032	395.16	4.5202	560.32	186.05	107.48	524.89	202.41	42.446	480.91	212.15	60.094	604.01	176.95	127.63	448.71	212.72	115.3	441.34	354.85	136.8	260.59	216.95	242.25	223.7	226.68	174.24	197.51	233.19	197.85	284.15	211.76	266.05	111.76	238.84	279.06	119.51	321.9	233.66	52.873	279.18	255.8	39.376	315.6	254.38	28.33	254.73	397.79	106.1	215.28	408.52	139.27	319.34	448.28	182.3	268.16	-150.6	1351.5	366.93	-232.05	1100.8	364.56
292	1.2125	36.903	1051.9	367.32	-65.887	1285.7	506.29	-73.413	1293.3	212.83	-26.849	1574.6	345.84	-13.356	876.26	489.03	39.18	866.44	271.86	-211.86	915.5	374.09	-198.53	914.11	300.49	-113.96	771.52	554.4	-54.691	779.36	160.67	-126.61	924.55	517.52	-69.849	916.4	179.73	-235.07	870.6	324.95	-175.29	583.22	526.75	-149.69	490.77	489.48	-219.9	507.71	501.59	-109.27	567.6	512.63	-232.67	428.51	482.53	-239.28	421.88	338.78	-394.56	276.12	459.02	-363.16	171.58	435.72	-420.83	207.46	445.45	-335.25	233.17	456.32	-447.92	113.06	427.18	-438.02	127.25	345.83	-513.98	111.31	372.53	-507.45	78.105	344.12	-516.59	79.332	407.78	-362.02	37.654	448.5	-331.25	32.403	340.72	-280.71	52.792	395.1	11.231	559.76	186.06	114.23	524.52	202.55	49.264	480.44	212.32	66.743	603.52	176.93	134.28	448.16	212.96	122.23	441.15	355.02	141.87	259.9	217.21	246.9	222	227.29	178.67	196.47	233.47	203.15	282.9	212.24	269.56	110.2	239.28	282.57	117.56	322.45	236.43	52.17	279.58	258.28	38.185	315.89	256.72	27.446	255	401.09	103.08	215.83	412.16	135.78	319.99	452.48	178.38	268.96	-144.7	1350.7	365.96	-225.93	1099.9	364.08
293	1.2167	43.149	1051.2	366.94	-59.978	1285.1	505.44	-67.295	1292.3	211.97	-20.987	1573.9	344.75	-7.2425	875.32	488.82	45.544	865.8	271.65	-205.61	914.76	373.87	-192.34	913.46	300.26	-108.4	770.63	554.06	-48.153	779	160.42	-120.43	923.63	517.34	-63.625	915.66	179.49	-229.05	870.02	324.62	-169.99	582.53	526.35	-144.46	489.98	489.4	-214.68	507.1	501.28	-103.94	566.75	512.57	-227.58	427.9	482.37	-233.83	421.07	338.62	-391.05	277.3	459	-361.1	172.34	435.87	-418.18	208.94	445.55	-332.35	233.64	456.34	-446.42	114.73	427.56	-436.39	128.83	346.13	-512.43	113.99	372.98	-506.38	80.843	344.41	-515.5	81.915	408.08	-361.68	37.724	448.64	-331.15	32.431	340.77	-280.6	52.558	395.04	17.921	559.23	186.09	120.95	524.15	202.7	56.037	480.01	212.52	73.385	603.04	176.92	140.89	447.63	213.21	129.11	440.97	355.18	146.86	259.25	217.47	251.45	220.29	227.92	182.97	195.44	233.74	208.36	281.66	212.73	272.9	108.64	239.72	285.88	115.57	323.01	238.95	51.599	279.96	260.45	37.072	316.16	258.73	26.679	255.23	404.17	99.923	216.41	415.61	132.08	320.68	456.57	174.19	269.82	-138.78	1349.8	364.96	-219.75	1099	363.59
294	1.2208	49.458	1050.7	366.55	-54.046	1284.5	504.58	-61.139	1291.4	211.1	-15.115	1573.2	343.64	-1.0414	874.41	488.56	51.948	865.21	271.39	-199.28	914.07	373.68	-186.1	912.87	300.05	-102.75	769.75	553.69	-41.561	778.69	160.17	-114.15	922.75	517.15	-57.361	914.99	179.24	-222.96	869.5	324.32	-164.57	581.84	525.93	-139.11	489.2	489.3	-209.32	506.49	500.97	-98.495	565.92	512.47	-222.36	427.3	482.22	-228.28	420.26	338.46	-387.43	278.52	459	-358.95	173.17	436.05	-415.43	210.48	445.67	-329.35	234.15	456.38	-444.81	116.45	427.96	-434.62	130.48	346.47	-510.75	116.8	373.45	-505.21	83.714	344.72	-514.32	84.629	408.4	-361.32	37.811	448.8	-331.06	32.468	340.82	-280.49	52.33	394.97	24.583	558.74	186.12	127.64	523.78	202.84	62.757	479.6	212.72	80.016	602.58	176.9	147.47	447.13	213.45	135.93	440.8	355.31	151.77	258.64	217.72	255.89	218.59	228.56	187.18	194.45	234.01	213.51	280.44	213.25	276.08	107.13	240.17	289.03	113.6	323.59	241.25	51.178	280.33	262.34	36.058	316.41	260.48	26.047	255.45	407.06	96.652	217.01	418.88	128.22	321.41	460.55	169.78	270.74	-132.83	1349	363.94	-213.52	1098.2	363.09
